<svg width="31" height="35" viewBox="0 0 31 35" fill="none" xmlns="http://www.w3.org/2000/svg">
<path d="M12.4938 14.8022C12.2609 14.8122 12.0322 14.8679 11.8209 14.9663C11.6096 15.0646 11.4197 15.2037 11.2622 15.3756C11.1047 15.5474 10.9826 15.7486 10.9029 15.9677C10.8233 16.1867 10.7876 16.4194 10.798 16.6522C10.7876 16.8851 10.8233 17.1177 10.9029 17.3368C10.9826 17.5559 11.1047 17.7571 11.2622 17.9289C11.4197 18.1008 11.6096 18.2399 11.8209 18.3382C12.0322 18.4366 12.2609 18.4923 12.4938 18.5022C12.9844 18.5022 13.455 18.3073 13.8019 17.9604C14.1489 17.6135 14.3438 17.1429 14.3438 16.6522C14.3438 16.1616 14.1489 15.691 13.8019 15.3441C13.455 14.9972 12.9844 14.8022 12.4938 14.8022Z" fill="#676767"/>
<path d="M18.5834 14.8021C18.2124 14.7711 17.8408 14.8527 17.517 15.0362C17.1932 15.2197 16.9323 15.4966 16.7683 15.8308C16.6044 16.1649 16.545 16.5407 16.5981 16.9091C16.6511 17.2775 16.814 17.6214 17.0655 17.8957C17.317 18.1701 17.6454 18.3622 18.0078 18.447C18.3702 18.5318 18.7498 18.5053 19.0969 18.371C19.444 18.2366 19.7425 18.0007 19.9534 17.6941C20.1644 17.3874 20.2779 17.0243 20.2792 16.6521C20.2895 16.4192 20.2538 16.1866 20.1742 15.9675C20.0945 15.7484 19.9724 15.5472 19.8149 15.3754C19.6574 15.2036 19.4676 15.0645 19.2562 14.9661C19.0449 14.8677 18.8162 14.812 18.5834 14.8021Z" fill="#676767"/>
<path d="M26.6771 0.541748H4.32294C3.40297 0.541748 2.52068 0.907205 1.87016 1.55772C1.21964 2.20824 0.854187 3.09053 0.854187 4.0105V26.9813C0.854187 27.9013 1.21964 28.7836 1.87016 29.4341C2.52068 30.0846 3.40297 30.4501 4.32294 30.4501H23.2854L22.3604 27.2897L24.5188 29.3709L26.5229 31.2209L30.1459 34.4584V4.0105C30.1459 3.09053 29.7804 2.20824 29.1299 1.55772C28.4794 0.907205 27.5971 0.541748 26.6771 0.541748ZM20.2792 22.6647L19.1229 21.2772C20.3563 20.997 21.4495 20.2864 22.2063 19.273C21.5965 19.6664 20.9514 20.0019 20.2792 20.2751C19.4893 20.6259 18.6616 20.8845 17.8125 21.0459C16.3864 21.3169 14.922 21.3169 13.4959 21.0459C12.6537 20.8578 11.8286 20.5999 11.0292 20.2751L9.79585 19.7355H9.64169C9.64169 19.6584 9.64169 19.6584 9.5646 19.6584L9.1021 19.3501C9.82022 20.3338 10.8542 21.0413 12.0313 21.3542L10.9521 22.7417C9.94927 22.7698 8.95473 22.5528 8.05475 22.1095C7.15477 21.6663 6.37652 21.0101 5.78752 20.198C5.84072 16.7633 6.68479 13.387 8.25419 10.3313C9.58825 9.24685 11.2383 8.6247 12.9563 8.55841L13.1104 8.71258C11.5056 9.14206 10.0087 9.90361 8.71669 10.948L9.71877 10.4855C10.892 9.87427 12.1768 9.50716 13.4959 9.40633H13.8042C14.906 9.2907 16.0169 9.2907 17.1188 9.40633C18.911 9.57524 20.646 10.1273 22.2063 11.0251C21.001 9.99835 19.5774 9.26017 18.0438 8.86675L18.275 8.6355C19.993 8.70178 21.643 9.32393 22.9771 10.4084C24.502 13.477 25.3186 16.8488 25.3667 20.2751C25.3667 20.2751 23.9792 22.5876 20.2792 22.6647Z" fill="#676767"/>
</svg>
