<svg width="37" height="37" viewBox="0 0 37 37" fill="none" xmlns="http://www.w3.org/2000/svg">
<path d="M4.82257 29.0205C4.39606 29.0205 3.99723 28.9084 3.65657 28.7114L13.705 19.9541L14.643 20.7703C15.428 21.4525 16.4106 21.7979 17.384 21.7979C18.3622 21.7979 19.3448 21.4525 20.1298 20.7703L21.0673 19.9541L24.4691 22.9198C24.8539 22.2715 25.3319 21.6874 25.8865 21.1827L22.7723 18.4693L32.3011 10.1562V19.34C33.187 19.5015 34.0178 19.8184 34.7679 20.2613V9.02115C34.7679 8.70289 34.7369 8.38796 34.6786 8.08322C34.5214 7.29371 34.1716 6.57127 33.6829 5.97443C33.5796 5.84435 33.4718 5.72793 33.3548 5.61151C32.4893 4.741 31.2733 4.198 29.9452 4.198H4.82257C3.49455 4.198 2.28345 4.741 1.41294 5.61151C1.29645 5.72793 1.18877 5.84435 1.08543 5.97443C0.596336 6.57127 0.246498 7.29371 0.0941621 8.08322C0.0310742 8.38796 0 8.70289 0 9.02115V26.6657C0 27.3426 0.143592 27.9933 0.39934 28.5809C0.636588 29.1418 0.986932 29.6493 1.41294 30.0748C1.52069 30.1825 1.62836 30.2815 1.74485 30.38C2.57945 31.071 3.65657 31.4883 4.82257 31.4883H25.0917C24.5051 30.7633 24.0485 29.9298 23.7612 29.0204H4.82257V29.0205ZM3.15779 7.35637C3.58864 6.92595 4.16756 6.66544 4.82257 6.66544H29.9454C30.6004 6.66544 31.1841 6.92603 31.6101 7.35637C31.6858 7.43304 31.7577 7.51846 31.8212 7.60337L18.6538 19.0793C18.2904 19.3976 17.8415 19.5549 17.384 19.5549C16.9308 19.5549 16.4824 19.3976 16.1142 19.0793L2.95205 7.59853C3.0103 7.51362 3.08213 7.43304 3.15779 7.35637ZM2.46686 26.6657V10.1517L11.9961 18.4645L2.4717 26.7686C2.46686 26.7371 2.46686 26.7017 2.46686 26.6657Z" fill="#666666"/>
<path d="M30.9503 20.7029C27.6091 20.7029 24.9015 23.4114 24.9015 26.7526C24.9015 30.0933 27.6091 32.8018 30.9503 32.8018C34.292 32.8018 37 30.0933 37 26.7526C37 23.4113 34.292 20.7029 30.9503 20.7029ZM31.8858 29.6459H30.4165V25.5686H30.3991L29.3336 26.0718L29.1113 24.784L30.6039 24.1017H31.8858L31.8858 29.6459Z" fill="#666666"/>
</svg>
