<svg width="77" height="77" viewBox="0 0 77 77" fill="none" xmlns="http://www.w3.org/2000/svg">
<path d="M38.2843 60.8434C42.7461 60.8434 47.1077 59.5203 50.8175 57.0415C54.5273 54.5626 57.4188 51.0394 59.1263 46.9172C60.8337 42.7951 61.2805 38.2591 60.41 33.8831C59.5396 29.507 57.391 25.4874 54.2361 22.3324C51.0811 19.1774 47.0614 17.0289 42.6854 16.1584C38.3093 15.288 33.7734 15.7347 29.6512 17.4422C25.5291 19.1496 22.0058 22.0411 19.527 25.7509C17.0481 29.4608 15.725 33.8224 15.725 38.2842" stroke="#070707" stroke-width="2"/>
<path d="M43.0698 33.4986L43.1802 32.5047L43.9753 32.5931L44.0637 33.3882L43.0698 33.4986ZM24.6348 53.3478C24.2443 53.7384 23.6111 53.7384 23.2206 53.3478C22.83 52.9573 22.83 52.3241 23.2206 51.9336L24.6348 53.3478ZM28.7132 31.9034L28.8236 30.9095L43.1802 32.5047L43.0698 33.4986L42.9594 34.4925L28.6028 32.8973L28.7132 31.9034ZM43.0698 33.4986L44.0637 33.3882L45.6589 47.7448L44.665 47.8552L43.6711 47.9656L42.0759 33.609L43.0698 33.4986ZM43.0698 33.4986L43.7769 34.2057L24.6348 53.3478L23.9277 52.6407L23.2206 51.9336L42.3627 32.7915L43.0698 33.4986Z" fill="#070707"/>
</svg>
