<svg width="37" height="37" viewBox="0 0 37 37" fill="none" xmlns="http://www.w3.org/2000/svg">
<path d="M10.0208 12.3333C11.298 12.3333 12.3333 11.2979 12.3333 10.0208C12.3333 8.74359 11.298 7.70825 10.0208 7.70825C8.74368 7.70825 7.70834 8.74359 7.70834 10.0208C7.70834 11.2979 8.74368 12.3333 10.0208 12.3333Z" fill="#676767"/>
<path d="M7.70834 15.4167C7.70834 14.5652 8.39858 13.875 9.25001 13.875H10.7917C11.6431 13.875 12.3333 14.5652 12.3333 15.4167V27.75C12.3333 28.6015 11.6431 29.2917 10.7917 29.2917H9.25001C8.39858 29.2917 7.70834 28.6015 7.70834 27.75V15.4167Z" fill="#676767"/>
<path d="M16.9583 29.2917H18.5C19.3515 29.2917 20.0417 28.6015 20.0417 27.75V20.8125C20.0417 18.5 24.6667 16.9583 24.6667 20.0417V27.7506C24.6667 28.6021 25.3569 29.2917 26.2083 29.2917H27.75C28.6015 29.2917 29.2917 28.6015 29.2917 27.75V18.5C29.2917 15.4167 26.9792 13.875 23.8958 13.875C20.8125 13.875 20.0417 16.1875 20.0417 16.1875V15.4167C20.0417 14.5652 19.3515 13.875 18.5 13.875H16.9583C16.1069 13.875 15.4167 14.5652 15.4167 15.4167V27.75C15.4167 28.6015 16.1069 29.2917 16.9583 29.2917Z" fill="#676767"/>
<path fill-rule="evenodd" clip-rule="evenodd" d="M30.8333 1.54175C33.3877 1.54175 35.4583 3.61244 35.4583 6.16675V30.8334C35.4583 33.3878 33.3877 35.4584 30.8333 35.4584H6.16666C3.61235 35.4584 1.54166 33.3878 1.54166 30.8334V6.16675C1.54166 3.61244 3.61235 1.54175 6.16666 1.54175H30.8333ZM30.8333 4.62508C31.6848 4.62508 32.375 5.31532 32.375 6.16675V30.8334C32.375 31.6849 31.6848 32.3751 30.8333 32.3751H6.16666C5.31523 32.3751 4.62499 31.6849 4.62499 30.8334V6.16675C4.62499 5.31532 5.31523 4.62508 6.16666 4.62508H30.8333Z" fill="#676767"/>
</svg>
