<svg width="37" height="37" viewBox="0 0 37 37" fill="none" xmlns="http://www.w3.org/2000/svg">
<path d="M25.9769 0H11.0231C8.1003 0.00222726 5.29782 1.16431 3.23106 3.23106C1.16431 5.29782 0.00222726 8.1003 0 11.0231V25.9769C0.00178182 28.9 1.16366 31.7029 3.23047 33.77C5.29727 35.8371 8.10001 36.9994 11.0231 37.0017H25.9769C28.8998 36.999 31.7023 35.8366 33.769 33.7695C35.8357 31.7025 36.9978 28.8998 37 25.9769V11.0231C36.9987 8.10003 35.8369 5.29703 33.7699 3.23008C31.703 1.16313 28.9 0.00133709 25.9769 0ZM33.2796 25.9769C33.2792 27.9135 32.5097 29.7708 31.1402 31.1402C29.7708 32.5097 27.9135 33.2792 25.9769 33.2796H11.0231C10.0642 33.2796 9.11466 33.0907 8.22874 32.7237C7.34282 32.3567 6.53787 31.8188 5.85988 31.1406C5.18189 30.4625 4.64413 29.6574 4.27731 28.7714C3.9105 27.8854 3.72181 26.9358 3.72203 25.9769V11.0231C3.72181 10.0643 3.91051 9.11477 4.27735 8.22886C4.64418 7.34295 5.18197 6.538 5.85998 5.85998C6.538 5.18197 7.34295 4.64418 8.22886 4.27735C9.11477 3.91051 10.0643 3.72181 11.0231 3.72203H25.9769C27.9131 3.72248 29.7699 4.49184 31.139 5.86097C32.5082 7.23009 33.2775 9.0869 33.278 11.0231L33.2796 25.9769Z" fill="#686868"/>
<path d="M18.5009 8.93419C13.2231 8.93419 8.93423 13.2247 8.93423 18.5008C8.93423 23.7769 13.2247 28.0674 18.5009 28.0674C23.777 28.0674 28.0675 23.7769 28.0675 18.5008C28.0675 13.2247 23.7786 8.93419 18.5009 8.93419ZM18.5009 24.3454C16.9508 24.3456 15.4641 23.7301 14.3679 22.6341C13.2716 21.5382 12.6556 20.0517 12.6554 18.5016C12.6552 16.9516 13.2708 15.4649 14.3667 14.3687C15.4626 13.2724 16.9491 12.6564 18.4992 12.6562C20.0492 12.656 21.5359 13.2715 22.6322 14.3675C23.7284 15.4634 24.3444 16.9499 24.3446 18.5C24.3448 20.05 23.7293 21.5367 22.6333 22.6329C21.5374 23.7292 20.0509 24.3452 18.5009 24.3454ZM28.0877 6.7124C28.5409 6.71274 28.9839 6.84742 29.3606 7.09945C29.7373 7.35147 30.0309 7.70951 30.2042 8.12833C30.3775 8.54714 30.4228 9.00794 30.3343 9.45247C30.2458 9.897 30.0275 10.3053 29.707 10.6258C29.3865 10.9463 28.9781 11.1646 28.5336 11.2531C28.0891 11.3416 27.6283 11.2964 27.2095 11.1231C26.7907 10.9498 26.4326 10.6562 26.1806 10.2795C25.9286 9.90275 25.7939 9.45976 25.7935 9.00651C25.7935 7.74172 26.6513 6.7124 28.0877 6.7124Z" fill="#686868"/>
</svg>
